<?xml version="1.0" encoding="UTF-8" standalone="no"?>
<svg width="788px" height="298px" viewBox="0 0 788 298" version="1.1" xmlns="http://www.w3.org/2000/svg" xmlns:xlink="http://www.w3.org/1999/xlink">
    <!-- Generator: Sketch 47.1 (45422) - http://www.bohemiancoding.com/sketch -->
    <title>Paygo-horizontal-white-gradientsvg</title>
    <desc>Created with Sketch.</desc>
    <defs>
        <linearGradient x1="81.4096371%" y1="83.0024083%" x2="-9.48482603%" y2="8.80138915%" id="linearGradient-1">
            <stop stop-color="#29EE5A" offset="0%"></stop>
            <stop stop-color="#05FF61" offset="48.7689888%"></stop>
            <stop stop-color="#8EFFB1" offset="100%"></stop>
        </linearGradient>
        <linearGradient x1="61.4125967%" y1="7.19111437%" x2="55.8467865%" y2="100%" id="linearGradient-2">
            <stop stop-color="#29EE5A" offset="0%"></stop>
            <stop stop-color="#05FF61" offset="48.7689888%"></stop>
            <stop stop-color="#8EFFB1" offset="100%"></stop>
        </linearGradient>
        <linearGradient x1="20.0370638%" y1="61.7844475%" x2="95.2016832%" y2="-7.32351675%" id="linearGradient-3">
            <stop stop-color="#29EE5A" offset="0%"></stop>
            <stop stop-color="#05FF61" offset="48.7689888%"></stop>
            <stop stop-color="#8EFFB1" offset="100%"></stop>
        </linearGradient>
    </defs>
    <g id="Exports" stroke="none" stroke-width="1" fill="none" fill-rule="evenodd">
        <g id="Paygo-horizontal-white-gradient">
            <g id="Group-Copy-3" transform="translate(-1.000000, -1.000000)">
                <path d="M345.414693,148.997515 L345.414693,76.5714193 L375.527787,76.5714193 C383.87533,76.5714193 390.015166,78.7441804 393.94748,83.0897679 C397.879794,87.4353554 399.845921,92.7465494 399.845921,99.0235091 C399.845921,104.955581 397.79356,110.197798 393.688777,114.750319 C389.583993,119.302839 383.53039,121.579065 375.527787,121.579065 L357.832464,121.579065 L357.832464,148.997515 L345.414693,148.997515 Z M376.148676,109.783958 C379.805037,109.783958 382.530021,108.714821 384.323708,106.576516 C386.117395,104.438211 387.014225,101.920567 387.014225,99.0235091 C387.014225,96.2644059 386.169135,93.7984944 384.47893,91.6257007 C382.788725,89.4529069 380.012001,88.3665264 376.148676,88.3665264 L357.832464,88.3665264 L357.832464,109.783958 L376.148676,109.783958 Z M458.080791,148.997515 L452.389312,133.16724 L423.724959,133.16724 L418.03348,148.997515 L404.89134,148.997515 L431.899991,76.5714193 L444.21428,76.5714193 L471.11945,148.997515 L458.080791,148.997515 Z M448.457018,121.992928 L440.488949,100.265099 C439.454129,97.6439513 438.66078,95.1952839 438.108876,92.9190238 C437.556972,94.9193736 436.763623,97.368041 435.728803,100.265099 L427.657253,121.992928 L448.457018,121.992928 Z M502.759594,148.997515 L502.759594,120.647872 L476.682275,76.5714193 L490.755749,76.5714193 L508.968479,107.921572 L527.181209,76.5714193 L541.254683,76.5714193 L515.073883,120.647872 L515.073883,148.997515 L502.759594,148.997515 Z M585.312597,150.239106 C579.931536,150.239106 575.154192,149.187213 570.98042,147.083397 C566.806649,144.979581 563.47803,142.134299 560.994463,138.547464 C558.510897,134.96063 556.64825,130.994479 555.406466,126.648891 C554.164683,122.303304 553.543801,117.681875 553.543801,112.784467 C553.543801,109.197633 553.940476,105.645341 554.733837,102.127485 C555.527199,98.6096281 556.78621,95.2297774 558.510909,91.9878312 C560.235608,88.7458849 562.305216,85.9006025 564.719794,83.4518984 C567.134373,81.0031943 570.118057,79.0373628 573.670937,77.5543449 C577.223817,76.0713269 581.104332,75.329829 585.312597,75.329829 C591.65949,75.329829 596.764522,76.6231393 600.627848,79.2097985 C604.491173,81.7964577 607.837039,85.3659939 610.665546,89.9185141 L599.593034,96.2299311 C595.591732,90.2978593 590.831634,87.3318678 585.312597,87.3318678 C581.863199,87.3318678 578.845021,88.107854 576.257973,89.6598495 C573.670924,91.211845 571.68755,93.2811414 570.307791,95.8678006 C568.928032,98.4544598 567.927722,101.161789 567.30683,103.98987 C566.685938,106.817951 566.375497,109.749454 566.375497,112.784467 C566.375497,119.958136 567.962196,125.993583 571.135643,130.890991 C574.309089,135.7884 579.034693,138.237067 585.312597,138.237067 C589.313899,138.237067 592.642518,136.926513 595.298555,134.305365 C597.954591,131.684216 599.282589,128.476807 599.282589,124.68304 L599.282589,123.544916 L586.554374,123.544916 L586.554374,111.853275 L611.907323,111.853275 L611.907323,121.889462 C611.907323,130.78757 609.423793,137.736957 604.45666,142.737831 C599.489527,147.738706 593.108237,150.239106 585.312597,150.239106 Z M664.86464,150.239106 C660.380422,150.239106 656.310194,149.514852 652.653832,148.066323 C648.99747,146.617794 645.979292,144.669206 643.599207,142.220502 C641.219123,139.771798 639.218502,136.926516 637.597285,133.684569 C635.976068,130.442623 634.820537,127.080017 634.130657,123.596649 C633.440778,120.113281 633.095843,116.509257 633.095843,112.784467 C633.095843,109.059678 633.440778,105.455654 634.130657,101.972286 C634.820537,98.4889181 635.976068,95.1263115 637.597285,91.8843653 C639.218502,88.6424191 641.219123,85.7971366 643.599207,83.3484325 C645.979292,80.8997285 648.99747,78.9511411 652.653832,77.5026119 C656.310194,76.0540828 660.380422,75.329829 664.86464,75.329829 C670.452664,75.329829 675.367983,76.4162096 679.610742,78.5890034 C683.853502,80.7617971 687.164874,83.6933003 689.544959,87.3836008 C691.925043,91.0739013 693.701457,95.0572967 694.874252,99.3339066 C696.047047,103.610517 696.633436,108.093992 696.633436,112.784467 C696.633436,117.474943 696.047047,121.958418 694.874252,126.235028 C693.701457,130.511638 691.925043,134.495033 689.544959,138.185334 C687.164874,141.875634 683.853502,144.807138 679.610742,146.979931 C675.367983,149.152725 670.452664,150.239106 664.86464,150.239106 Z M664.86464,138.340533 C668.176062,138.340533 671.108006,137.547302 673.66056,135.960818 C676.213115,134.374334 678.196489,132.287793 679.610742,129.701134 C681.024995,127.114475 682.077046,124.389901 682.766926,121.527332 C683.456805,118.664762 683.80174,115.750503 683.80174,112.784467 C683.80174,109.611499 683.456805,106.593775 682.766926,103.731205 C682.077046,100.868636 681.024995,98.1613064 679.610742,95.609136 C678.196489,93.0569655 676.230362,91.0221575 673.712301,89.5046507 C671.194241,87.987144 668.24505,87.228402 664.86464,87.228402 C660.44941,87.228402 656.75861,88.625177 653.792128,91.418769 C650.825645,94.2123609 648.773284,97.4370144 647.634983,101.092826 C646.496682,104.748638 645.927539,108.645813 645.927539,112.784467 C645.927539,115.888458 646.272474,118.888938 646.962354,121.785996 C647.652233,124.683055 648.704284,127.407628 650.118537,129.959799 C651.53279,132.511969 653.498918,134.546777 656.016978,136.064284 C658.535039,137.581791 661.48423,138.340533 664.86464,138.340533 Z M345.414693,255.259742 L345.414693,182.833645 L392.602222,182.833645 L392.602222,194.525287 L357.832464,194.525287 L357.832464,212.011016 L379.253118,212.011016 L379.253118,223.702657 L357.832464,223.702657 L357.832464,243.5681 L394.878813,243.5681 L394.878813,255.259742 L345.414693,255.259742 Z M474.120411,255.259742 L462.840936,255.259742 L432.831324,209.527835 C431.865492,208.079306 430.865182,206.285916 429.830362,204.147611 C430.037326,205.803073 430.140807,207.596463 430.140807,209.527835 L430.140807,255.259742 L417.826517,255.259742 L417.826517,182.833645 L429.830362,182.833645 L459.115605,227.841291 C459.805484,228.875955 460.805795,230.703833 462.116566,233.324981 C461.909602,231.462586 461.806122,229.634708 461.806122,227.841291 L461.806122,182.833645 L474.120411,182.833645 L474.120411,255.259742 Z M500.689965,255.259742 L500.689965,182.833645 L547.877494,182.833645 L547.877494,194.525287 L513.107736,194.525287 L513.107736,212.011016 L534.52839,212.011016 L534.52839,223.702657 L513.107736,223.702657 L513.107736,243.5681 L550.154085,243.5681 L550.154085,255.259742 L500.689965,255.259742 Z M573.10179,255.259742 L573.10179,182.833645 L605.18103,182.833645 C613.528573,182.833645 619.582176,184.902942 623.34202,189.041596 C627.101864,193.180251 628.981757,198.456957 628.981757,204.871872 C628.981757,209.355414 627.705499,213.562984 625.152945,217.494706 C622.60039,221.426428 618.90959,224.116513 614.080433,225.565042 L628.567832,255.259742 L614.59784,255.259742 L600.627848,226.910098 L585.51956,226.910098 L585.51956,255.259742 L573.10179,255.259742 Z M585.51956,215.114991 L605.387993,215.114991 C609.113343,215.114991 611.838326,214.149319 613.563025,212.217947 C615.287724,210.286575 616.150061,207.837908 616.150061,204.871872 C616.150061,201.974813 615.322218,199.54339 613.666507,197.577529 C612.010796,195.611668 609.251319,194.628752 605.387993,194.628752 L585.51956,194.628752 L585.51956,215.114991 Z M681.62863,256.501332 C676.247569,256.501332 671.470225,255.449439 667.296453,253.345623 C663.122682,251.241807 659.794062,248.396525 657.310496,244.809691 C654.826929,241.222856 652.964282,237.256705 651.722499,232.911118 C650.480716,228.56553 649.859833,223.944102 649.859833,219.046693 C649.859833,215.459859 650.256508,211.907567 651.04987,208.389711 C651.843231,204.871854 653.102243,201.492003 654.826942,198.250057 C656.551641,195.008111 658.621248,192.162829 661.035827,189.714124 C663.450406,187.26542 666.43409,185.299589 669.98697,183.816571 C673.53985,182.333553 677.420364,181.592055 681.62863,181.592055 C687.975522,181.592055 693.080555,182.885365 696.94388,185.472025 C700.807206,188.058684 704.153072,191.62822 706.981578,196.18074 L695.909066,202.492157 C691.907765,196.560085 687.147667,193.594094 681.62863,193.594094 C678.179232,193.594094 675.161054,194.37008 672.574006,195.922076 C669.986957,197.474071 668.003583,199.543367 666.623824,202.130027 C665.244065,204.716686 664.243754,207.424015 663.622863,210.252096 C663.001971,213.080177 662.69153,216.01168 662.69153,219.046693 C662.69153,226.220362 664.278229,232.255809 667.451675,237.153217 C670.625121,242.050626 675.350726,244.499293 681.62863,244.499293 C685.629932,244.499293 688.958551,243.188739 691.614587,240.567591 C694.270624,237.946443 695.598622,234.739033 695.598622,230.945266 L695.598622,229.807142 L682.870407,229.807142 L682.870407,218.115501 L708.223355,218.115501 L708.223355,228.151688 C708.223355,237.049796 705.739826,243.999183 700.772693,249.000057 C695.80556,254.000932 689.424269,256.501332 681.62863,256.501332 Z M751.142974,255.259742 L751.142974,226.910098 L725.065656,182.833645 L739.139129,182.833645 L757.35186,214.183798 L775.56459,182.833645 L789.638063,182.833645 L763.457264,226.910098 L763.457264,255.259742 L751.142974,255.259742 Z" id="PAYGO-ENERGY" fill="#00254A"></path>
                <g id="LOGO-Copy-5">
                    <path d="M209.897661,230.81887 C209.402628,230.18689 208.647493,229.809379 207.844813,229.803786 C207.844813,229.803786 176.752841,231.199177 146.080388,230.027496 C105.731024,227.214344 76.9296272,216.892926 52.5247924,200.548118 C16.0545832,178.07925 9.51847289,153.082459 6.3161424,142.752652 C5.93857505,141.536229 4.82265378,140.758837 3.45781773,140.918231 C2.19086951,141.083217 1.22038158,142.140246 1.16164888,143.420986 C1.06935464,145.57699 1.00223155,147.746977 1.00223155,149.930945 C1.00223155,231.607448 67.4568819,298.054896 149.341451,298.054896 C149.341451,298.054896 170.555143,298.054896 176.973788,294.648912 C184.281814,290.773137 203.417486,262.10191 210.3871,233.053173 C210.571688,232.275781 210.392693,231.450851 209.897661,230.81887" id="Fill-1" fill="url(#linearGradient-1)"></path>
                    <path d="M253.781335,45.17205 C253.400971,44.7973358 230.889566,41.6514147 220.944163,41.6514147 C185.880741,41.6514147 167.958878,53.2675538 164.722986,55.5913409 C164.104894,56.0359644 163.713343,56.7238725 163.637829,57.4760972 C163.565113,58.2311183 163.822418,58.983343 164.337028,59.5342288 L228.557039,128.109717 C229.633805,129.10243 230.251897,130.517396 230.251897,131.988289 C230.246303,168.025165 229.919078,220.748008 229.930266,225.115944 C230.60709,234.841734 217.176879,265.917843 205.57857,281.068599 C204.84581,282.024959 204.856997,283.35883 205.609335,284.306801 C206.118351,284.952763 206.884673,285.305106 207.673369,285.305106 C208.036953,285.305106 208.403333,285.226808 208.752932,285.073007 C261.917212,261.194766 296.273044,207.124072 296.273044,148.90915 C296.273044,108.934978 282.303052,73.2532414 253.781335,45.17205" id="Fill-4" fill="url(#linearGradient-2)"></path>
                    <path d="M62.0151575,184.367177 C62.43188,184.618851 62.9017416,184.741891 63.3688064,184.741891 C63.8162936,184.741891 64.2637809,184.630036 64.6665194,184.397937 C65.4943707,183.933739 66.0033875,183.055677 66.0033875,182.107707 L66.0033875,131.988289 C66.0033875,130.517396 66.6214792,129.10243 67.8296947,127.975491 C67.8296947,127.975491 139.819203,51.5813401 145.823922,45.3622035 C151.990855,38.9752844 176.216695,27.0151912 206.461238,27.6359863 C212.826744,27.7646196 219.446758,28.0834062 226.142286,28.9670605 C226.282126,28.9838388 226.43595,28.9838388 226.545025,28.9894315 C228.144791,29.1488249 229.227151,27.8261398 229.227151,26.3524505 C229.227151,25.2255116 228.516765,24.2579661 227.518309,23.8888447 C203.759534,8.7744412 176.31738,0.787996001 148.125684,0.787996001 C52.1340802,0.787996001 9.44659525,86.7457478 6.38130773,106.40426 C6.38130773,108.728047 17.8761359,157.935846 62.0151575,184.367177" id="Fill-7" fill="url(#linearGradient-3)"></path>
                </g>
            </g>
        </g>
    </g>
</svg>
